<mxfile host="app.diagrams.net" modified="2024-06-24T18:34:12.516Z" agent="Mozilla/5.0 (Windows NT 10.0; Win64; x64) AppleWebKit/537.36 (KHTML, like Gecko) Chrome/126.0.0.0 Safari/537.36" etag="hY2tN9cYpn-CC1opc8eT" version="24.5.5" type="device">
  <diagram name="Страница — 1" id="NKm2Fh7igrNM9elNS_53">
    <mxGraphModel dx="1235" dy="735" grid="1" gridSize="10" guides="1" tooltips="1" connect="1" arrows="1" fold="1" page="1" pageScale="1" pageWidth="827" pageHeight="1169" math="0" shadow="0">
      <root>
        <mxCell id="0" />
        <mxCell id="1" parent="0" />
        <mxCell id="5KJkYA16pewE1ucpvy-T-1" value="Сотрудник" style="shape=umlActor;verticalLabelPosition=bottom;verticalAlign=top;html=1;fontColor=default;" vertex="1" parent="1">
          <mxGeometry x="40" y="240" width="80" height="70" as="geometry" />
        </mxCell>
        <mxCell id="5KJkYA16pewE1ucpvy-T-5" value="Просмотреть список новостей&amp;nbsp;" style="ellipse;whiteSpace=wrap;html=1;" vertex="1" parent="1">
          <mxGeometry x="239" y="100" width="190" height="80" as="geometry" />
        </mxCell>
        <mxCell id="5KJkYA16pewE1ucpvy-T-9" value="&lt;span style=&quot;color: rgb(31, 35, 40); font-family: -apple-system, BlinkMacSystemFont, &amp;quot;Segoe UI&amp;quot;, &amp;quot;Noto Sans&amp;quot;, Helvetica, Arial, sans-serif, &amp;quot;Apple Color Emoji&amp;quot;, &amp;quot;Segoe UI Emoji&amp;quot;; font-size: 14px; text-align: start; text-wrap: wrap; background-color: rgb(255, 255, 255);&quot;&gt;Руководитель&lt;/span&gt;&lt;div&gt;&lt;span style=&quot;color: rgb(31, 35, 40); font-family: -apple-system, BlinkMacSystemFont, &amp;quot;Segoe UI&amp;quot;, &amp;quot;Noto Sans&amp;quot;, Helvetica, Arial, sans-serif, &amp;quot;Apple Color Emoji&amp;quot;, &amp;quot;Segoe UI Emoji&amp;quot;; font-size: 14px; text-align: start; text-wrap: wrap; background-color: rgb(255, 255, 255);&quot;&gt;&lt;br&gt;&lt;/span&gt;&lt;/div&gt;" style="shape=umlActor;verticalLabelPosition=bottom;verticalAlign=top;html=1;outlineConnect=0;" vertex="1" parent="1">
          <mxGeometry x="40" y="440" width="80" height="80" as="geometry" />
        </mxCell>
        <mxCell id="5KJkYA16pewE1ucpvy-T-11" value="" style="endArrow=none;html=1;rounded=0;exitX=1;exitY=0.3333333333333333;exitDx=0;exitDy=0;exitPerimeter=0;entryX=0;entryY=0.5;entryDx=0;entryDy=0;" edge="1" parent="1" source="5KJkYA16pewE1ucpvy-T-1" target="5KJkYA16pewE1ucpvy-T-5">
          <mxGeometry width="50" height="50" relative="1" as="geometry">
            <mxPoint x="510" y="450" as="sourcePoint" />
            <mxPoint x="560" y="400" as="targetPoint" />
          </mxGeometry>
        </mxCell>
        <mxCell id="5KJkYA16pewE1ucpvy-T-13" value="Администратор" style="shape=umlActor;verticalLabelPosition=bottom;verticalAlign=top;html=1;" vertex="1" parent="1">
          <mxGeometry x="40" y="650" width="80" height="80" as="geometry" />
        </mxCell>
        <mxCell id="5KJkYA16pewE1ucpvy-T-14" value="Посмотреть новость детально" style="ellipse;whiteSpace=wrap;html=1;" vertex="1" parent="1">
          <mxGeometry x="239" y="190" width="180" height="80" as="geometry" />
        </mxCell>
        <mxCell id="5KJkYA16pewE1ucpvy-T-15" value="" style="endArrow=none;html=1;rounded=0;entryX=0;entryY=0.5;entryDx=0;entryDy=0;" edge="1" parent="1" source="5KJkYA16pewE1ucpvy-T-1" target="5KJkYA16pewE1ucpvy-T-14">
          <mxGeometry width="50" height="50" relative="1" as="geometry">
            <mxPoint x="510" y="450" as="sourcePoint" />
            <mxPoint x="560" y="400" as="targetPoint" />
          </mxGeometry>
        </mxCell>
        <mxCell id="5KJkYA16pewE1ucpvy-T-16" value="Одобрить публикацию новости" style="ellipse;whiteSpace=wrap;html=1;" vertex="1" parent="1">
          <mxGeometry x="239" y="505" width="175" height="80" as="geometry" />
        </mxCell>
        <mxCell id="5KJkYA16pewE1ucpvy-T-17" value="" style="endArrow=none;html=1;rounded=0;entryX=0.032;entryY=0.725;entryDx=0;entryDy=0;entryPerimeter=0;" edge="1" parent="1" source="5KJkYA16pewE1ucpvy-T-9" target="5KJkYA16pewE1ucpvy-T-5">
          <mxGeometry width="50" height="50" relative="1" as="geometry">
            <mxPoint x="160" y="400" as="sourcePoint" />
            <mxPoint x="210" y="350" as="targetPoint" />
          </mxGeometry>
        </mxCell>
        <mxCell id="5KJkYA16pewE1ucpvy-T-18" value="" style="endArrow=none;html=1;rounded=0;exitX=1;exitY=0.3333333333333333;exitDx=0;exitDy=0;exitPerimeter=0;entryX=0;entryY=0.5;entryDx=0;entryDy=0;" edge="1" parent="1" source="5KJkYA16pewE1ucpvy-T-9" target="5KJkYA16pewE1ucpvy-T-14">
          <mxGeometry width="50" height="50" relative="1" as="geometry">
            <mxPoint x="150" y="450" as="sourcePoint" />
            <mxPoint x="200" y="400" as="targetPoint" />
          </mxGeometry>
        </mxCell>
        <mxCell id="5KJkYA16pewE1ucpvy-T-19" value="Отправить новость на публикацию" style="ellipse;whiteSpace=wrap;html=1;" vertex="1" parent="1">
          <mxGeometry x="254" y="290" width="160" height="80" as="geometry" />
        </mxCell>
        <mxCell id="5KJkYA16pewE1ucpvy-T-20" value="" style="endArrow=none;html=1;rounded=0;" edge="1" parent="1" source="5KJkYA16pewE1ucpvy-T-1" target="5KJkYA16pewE1ucpvy-T-19">
          <mxGeometry width="50" height="50" relative="1" as="geometry">
            <mxPoint x="220" y="420" as="sourcePoint" />
            <mxPoint x="270" y="370" as="targetPoint" />
          </mxGeometry>
        </mxCell>
        <mxCell id="5KJkYA16pewE1ucpvy-T-21" value="" style="endArrow=none;html=1;rounded=0;" edge="1" parent="1" source="5KJkYA16pewE1ucpvy-T-9" target="5KJkYA16pewE1ucpvy-T-16">
          <mxGeometry width="50" height="50" relative="1" as="geometry">
            <mxPoint x="180" y="530" as="sourcePoint" />
            <mxPoint x="230" y="480" as="targetPoint" />
          </mxGeometry>
        </mxCell>
        <mxCell id="5KJkYA16pewE1ucpvy-T-22" value="" style="endArrow=none;html=1;rounded=0;entryX=-0.012;entryY=0.625;entryDx=0;entryDy=0;entryPerimeter=0;" edge="1" parent="1" target="5KJkYA16pewE1ucpvy-T-19">
          <mxGeometry width="50" height="50" relative="1" as="geometry">
            <mxPoint x="120" y="480" as="sourcePoint" />
            <mxPoint x="270" y="420" as="targetPoint" />
          </mxGeometry>
        </mxCell>
        <mxCell id="5KJkYA16pewE1ucpvy-T-23" value="Опубликовать новость" style="ellipse;whiteSpace=wrap;html=1;" vertex="1" parent="1">
          <mxGeometry x="215" y="690" width="160" height="80" as="geometry" />
        </mxCell>
        <mxCell id="5KJkYA16pewE1ucpvy-T-24" value="" style="endArrow=none;html=1;rounded=0;entryX=0;entryY=0.5;entryDx=0;entryDy=0;" edge="1" parent="1" source="5KJkYA16pewE1ucpvy-T-13" target="5KJkYA16pewE1ucpvy-T-23">
          <mxGeometry width="50" height="50" relative="1" as="geometry">
            <mxPoint x="180" y="660" as="sourcePoint" />
            <mxPoint x="230" y="610" as="targetPoint" />
          </mxGeometry>
        </mxCell>
        <mxCell id="5KJkYA16pewE1ucpvy-T-25" value="Одобрить изменения новости" style="ellipse;whiteSpace=wrap;html=1;" vertex="1" parent="1">
          <mxGeometry x="254" y="400" width="160" height="80" as="geometry" />
        </mxCell>
        <mxCell id="5KJkYA16pewE1ucpvy-T-27" value="Отменить публикацию новости" style="ellipse;whiteSpace=wrap;html=1;" vertex="1" parent="1">
          <mxGeometry x="215" y="780" width="145" height="80" as="geometry" />
        </mxCell>
        <mxCell id="5KJkYA16pewE1ucpvy-T-28" value="" style="endArrow=none;html=1;rounded=0;entryX=0.015;entryY=0.305;entryDx=0;entryDy=0;entryPerimeter=0;" edge="1" parent="1" source="5KJkYA16pewE1ucpvy-T-13" target="5KJkYA16pewE1ucpvy-T-27">
          <mxGeometry width="50" height="50" relative="1" as="geometry">
            <mxPoint x="190" y="720" as="sourcePoint" />
            <mxPoint x="240" y="670" as="targetPoint" />
          </mxGeometry>
        </mxCell>
        <mxCell id="5KJkYA16pewE1ucpvy-T-29" value="Редактировать новость" style="ellipse;whiteSpace=wrap;html=1;" vertex="1" parent="1">
          <mxGeometry x="500" y="180" width="150" height="80" as="geometry" />
        </mxCell>
        <mxCell id="5KJkYA16pewE1ucpvy-T-31" value="" style="endArrow=none;html=1;rounded=0;entryX=0;entryY=0.5;entryDx=0;entryDy=0;" edge="1" parent="1" target="5KJkYA16pewE1ucpvy-T-25">
          <mxGeometry width="50" height="50" relative="1" as="geometry">
            <mxPoint x="120" y="480" as="sourcePoint" />
            <mxPoint x="560" y="500" as="targetPoint" />
          </mxGeometry>
        </mxCell>
        <mxCell id="5KJkYA16pewE1ucpvy-T-36" value="Изменить тему новости" style="ellipse;whiteSpace=wrap;html=1;" vertex="1" parent="1">
          <mxGeometry x="660" y="60" width="120" height="80" as="geometry" />
        </mxCell>
        <mxCell id="5KJkYA16pewE1ucpvy-T-37" value="&amp;lt;&amp;lt;include&amp;gt;&amp;gt;" style="html=1;verticalAlign=bottom;labelBackgroundColor=none;endArrow=open;endFill=0;dashed=1;rounded=0;exitX=1;exitY=0;exitDx=0;exitDy=0;" edge="1" parent="1" source="5KJkYA16pewE1ucpvy-T-14" target="5KJkYA16pewE1ucpvy-T-29">
          <mxGeometry width="160" relative="1" as="geometry">
            <mxPoint x="490" y="198.82" as="sourcePoint" />
            <mxPoint x="650" y="198.82" as="targetPoint" />
          </mxGeometry>
        </mxCell>
        <mxCell id="5KJkYA16pewE1ucpvy-T-39" value="Изменить содержание" style="ellipse;whiteSpace=wrap;html=1;" vertex="1" parent="1">
          <mxGeometry x="700" y="170" width="120" height="80" as="geometry" />
        </mxCell>
        <mxCell id="5KJkYA16pewE1ucpvy-T-42" value="&amp;lt;&amp;lt;extend&amp;gt;&amp;gt;" style="html=1;verticalAlign=bottom;labelBackgroundColor=none;endArrow=open;endFill=0;dashed=1;rounded=0;entryX=0.5;entryY=0;entryDx=0;entryDy=0;exitX=0.065;exitY=0.735;exitDx=0;exitDy=0;exitPerimeter=0;" edge="1" parent="1" source="5KJkYA16pewE1ucpvy-T-36" target="5KJkYA16pewE1ucpvy-T-29">
          <mxGeometry width="160" relative="1" as="geometry">
            <mxPoint x="710" y="320" as="sourcePoint" />
            <mxPoint x="870" y="320" as="targetPoint" />
          </mxGeometry>
        </mxCell>
        <mxCell id="5KJkYA16pewE1ucpvy-T-43" value="&amp;lt;&amp;lt;extend&amp;gt;&amp;gt;" style="html=1;verticalAlign=bottom;labelBackgroundColor=none;endArrow=open;endFill=0;dashed=1;rounded=0;entryX=1;entryY=0.5;entryDx=0;entryDy=0;exitX=0;exitY=0.5;exitDx=0;exitDy=0;" edge="1" parent="1" source="5KJkYA16pewE1ucpvy-T-39" target="5KJkYA16pewE1ucpvy-T-29">
          <mxGeometry width="160" relative="1" as="geometry">
            <mxPoint x="720" y="300" as="sourcePoint" />
            <mxPoint x="880" y="300" as="targetPoint" />
          </mxGeometry>
        </mxCell>
        <mxCell id="5KJkYA16pewE1ucpvy-T-46" value="Поместить новость в Архив" style="ellipse;whiteSpace=wrap;html=1;" vertex="1" parent="1">
          <mxGeometry x="210" y="890" width="150" height="80" as="geometry" />
        </mxCell>
        <mxCell id="5KJkYA16pewE1ucpvy-T-47" value="" style="endArrow=none;html=1;rounded=0;exitX=0.91;exitY=0.945;exitDx=0;exitDy=0;exitPerimeter=0;entryX=0.018;entryY=0.221;entryDx=0;entryDy=0;entryPerimeter=0;" edge="1" parent="1" source="5KJkYA16pewE1ucpvy-T-13" target="5KJkYA16pewE1ucpvy-T-46">
          <mxGeometry width="50" height="50" relative="1" as="geometry">
            <mxPoint x="210" y="810" as="sourcePoint" />
            <mxPoint x="260" y="760" as="targetPoint" />
          </mxGeometry>
        </mxCell>
        <mxCell id="5KJkYA16pewE1ucpvy-T-50" value="Помещённые в архив новости скрываются из ленты но их можно увидеть в специальном разделе" style="shape=note;size=20;whiteSpace=wrap;html=1;" vertex="1" parent="1">
          <mxGeometry x="590" y="960" width="190" height="120" as="geometry" />
        </mxCell>
        <mxCell id="5KJkYA16pewE1ucpvy-T-52" value="" style="endArrow=none;dashed=1;html=1;dashPattern=1 3;strokeWidth=2;rounded=0;exitX=1;exitY=0.5;exitDx=0;exitDy=0;entryX=0;entryY=0.5;entryDx=0;entryDy=0;entryPerimeter=0;" edge="1" parent="1" source="5KJkYA16pewE1ucpvy-T-46" target="5KJkYA16pewE1ucpvy-T-50">
          <mxGeometry width="50" height="50" relative="1" as="geometry">
            <mxPoint x="490" y="890" as="sourcePoint" />
            <mxPoint x="540" y="840" as="targetPoint" />
          </mxGeometry>
        </mxCell>
        <mxCell id="5KJkYA16pewE1ucpvy-T-53" value="Отмена публикации возможна после отправки сотрудником новости в очередь на публикацию" style="shape=note;whiteSpace=wrap;html=1;backgroundOutline=1;darkOpacity=0.05;" vertex="1" parent="1">
          <mxGeometry x="590" y="810" width="190" height="130" as="geometry" />
        </mxCell>
        <mxCell id="5KJkYA16pewE1ucpvy-T-54" value="" style="endArrow=none;dashed=1;html=1;dashPattern=1 3;strokeWidth=2;rounded=0;exitX=0.987;exitY=0.64;exitDx=0;exitDy=0;exitPerimeter=0;entryX=0;entryY=0.5;entryDx=0;entryDy=0;entryPerimeter=0;" edge="1" parent="1" source="5KJkYA16pewE1ucpvy-T-27" target="5KJkYA16pewE1ucpvy-T-53">
          <mxGeometry width="50" height="50" relative="1" as="geometry">
            <mxPoint x="470" y="770" as="sourcePoint" />
            <mxPoint x="520" y="720" as="targetPoint" />
          </mxGeometry>
        </mxCell>
        <mxCell id="5KJkYA16pewE1ucpvy-T-55" value="Удалить новость&amp;nbsp;" style="ellipse;whiteSpace=wrap;html=1;" vertex="1" parent="1">
          <mxGeometry x="220" y="590" width="150" height="80" as="geometry" />
        </mxCell>
        <mxCell id="5KJkYA16pewE1ucpvy-T-57" value="" style="endArrow=none;html=1;rounded=0;" edge="1" parent="1" source="5KJkYA16pewE1ucpvy-T-13" target="5KJkYA16pewE1ucpvy-T-55">
          <mxGeometry width="50" height="50" relative="1" as="geometry">
            <mxPoint x="460" y="610" as="sourcePoint" />
            <mxPoint x="510" y="560" as="targetPoint" />
          </mxGeometry>
        </mxCell>
        <mxCell id="5KJkYA16pewE1ucpvy-T-58" value="Публикация возможна только после одобрения руководителем отвечающим за ленту новостей" style="shape=note;whiteSpace=wrap;html=1;backgroundOutline=1;darkOpacity=0.05;" vertex="1" parent="1">
          <mxGeometry x="595" y="690" width="195" height="80" as="geometry" />
        </mxCell>
        <mxCell id="5KJkYA16pewE1ucpvy-T-62" value="" style="endArrow=none;html=1;rounded=0;" edge="1" parent="1" target="5KJkYA16pewE1ucpvy-T-55">
          <mxGeometry width="50" height="50" relative="1" as="geometry">
            <mxPoint x="120" y="490" as="sourcePoint" />
            <mxPoint x="520" y="490" as="targetPoint" />
          </mxGeometry>
        </mxCell>
        <mxCell id="5KJkYA16pewE1ucpvy-T-64" value="" style="endArrow=none;dashed=1;html=1;dashPattern=1 3;strokeWidth=2;rounded=0;exitX=1;exitY=0.5;exitDx=0;exitDy=0;entryX=0;entryY=0.5;entryDx=0;entryDy=0;entryPerimeter=0;" edge="1" parent="1" source="5KJkYA16pewE1ucpvy-T-23" target="5KJkYA16pewE1ucpvy-T-58">
          <mxGeometry width="50" height="50" relative="1" as="geometry">
            <mxPoint x="440" y="740" as="sourcePoint" />
            <mxPoint x="490" y="690" as="targetPoint" />
          </mxGeometry>
        </mxCell>
        <mxCell id="5KJkYA16pewE1ucpvy-T-66" value="Удалять новости может только руководитель и администратор при этом новость не помещается в Архив" style="shape=note;whiteSpace=wrap;html=1;backgroundOutline=1;darkOpacity=0.05;" vertex="1" parent="1">
          <mxGeometry x="595" y="560" width="185" height="110" as="geometry" />
        </mxCell>
        <mxCell id="5KJkYA16pewE1ucpvy-T-67" value="" style="endArrow=none;dashed=1;html=1;dashPattern=1 3;strokeWidth=2;rounded=0;exitX=1;exitY=0.5;exitDx=0;exitDy=0;entryX=0;entryY=0.5;entryDx=0;entryDy=0;entryPerimeter=0;" edge="1" parent="1" source="5KJkYA16pewE1ucpvy-T-55" target="5KJkYA16pewE1ucpvy-T-66">
          <mxGeometry width="50" height="50" relative="1" as="geometry">
            <mxPoint x="430" y="650" as="sourcePoint" />
            <mxPoint x="480" y="600" as="targetPoint" />
          </mxGeometry>
        </mxCell>
        <mxCell id="5KJkYA16pewE1ucpvy-T-68" value="Все действия со стороны сотрудника требуют одобрения.&lt;br&gt;Руководитель может отправить новость на публикацию без одобрения" style="shape=note;whiteSpace=wrap;html=1;backgroundOutline=1;darkOpacity=0.05;" vertex="1" parent="1">
          <mxGeometry x="595" y="450" width="165" height="90" as="geometry" />
        </mxCell>
        <mxCell id="5KJkYA16pewE1ucpvy-T-69" value="" style="endArrow=none;dashed=1;html=1;dashPattern=1 3;strokeWidth=2;rounded=0;exitX=0.994;exitY=0.344;exitDx=0;exitDy=0;exitPerimeter=0;" edge="1" parent="1" source="5KJkYA16pewE1ucpvy-T-16" target="5KJkYA16pewE1ucpvy-T-68">
          <mxGeometry width="50" height="50" relative="1" as="geometry">
            <mxPoint x="460" y="520" as="sourcePoint" />
            <mxPoint x="510" y="470" as="targetPoint" />
          </mxGeometry>
        </mxCell>
        <mxCell id="5KJkYA16pewE1ucpvy-T-71" value="" style="endArrow=none;dashed=1;html=1;dashPattern=1 3;strokeWidth=2;rounded=0;exitX=1;exitY=0.5;exitDx=0;exitDy=0;" edge="1" parent="1" source="5KJkYA16pewE1ucpvy-T-25">
          <mxGeometry width="50" height="50" relative="1" as="geometry">
            <mxPoint x="490" y="490" as="sourcePoint" />
            <mxPoint x="600" y="470" as="targetPoint" />
          </mxGeometry>
        </mxCell>
      </root>
    </mxGraphModel>
  </diagram>
</mxfile>
